<?xml version="1.0" encoding="UTF-8" standalone="no"?>
<!DOCTYPE svg PUBLIC "-//W3C//DTD SVG 1.1//EN"
 "http://www.w3.org/Graphics/SVG/1.1/DTD/svg11.dtd">
<!-- Generated by graphviz version 2.28.0 (20120731.2220)
 -->
<!-- Title: G Pages: 1 -->
<svg width="398pt" height="834pt"
 viewBox="0.00 0.00 398.00 834.00" xmlns="http://www.w3.org/2000/svg" xmlns:xlink="http://www.w3.org/1999/xlink">
<g id="graph1" class="graph" transform="scale(1 1) rotate(0) translate(4 830)">
<title>G</title>
<polygon fill="white" stroke="white" points="-4,5 -4,-830 395,-830 395,5 -4,5"/>
<g id="graph2" class="cluster"><title>cluster_global</title>
<polyline fill="none" stroke="gray" points="40,-44 370,-44 "/>
<path fill="none" stroke="gray" d="M370,-44C376,-44 382,-50 382,-56"/>
<polyline fill="none" stroke="gray" points="382,-56 382,-806 "/>
<path fill="none" stroke="gray" d="M382,-806C382,-812 376,-818 370,-818"/>
<polyline fill="none" stroke="gray" points="370,-818 40,-818 "/>
<path fill="none" stroke="gray" d="M40,-818C34,-818 28,-812 28,-806"/>
<polyline fill="none" stroke="gray" points="28,-806 28,-56 "/>
<path fill="none" stroke="gray" d="M28,-56C28,-50 34,-44 40,-44"/>
<text text-anchor="middle" x="205" y="-805.2" font-family="Times,serif" font-size="11.00" fill="gray">global</text>
</g>
<!-- \\Group -->
<g id="node2" class="node"><title>\\Group</title>
<a xlink:href="group.html" xlink:title="Group" target="_parent">
<polygon fill="none" stroke="black" points="315,-790 261,-790 261,-754 315,-754 315,-790"/>
<text text-anchor="middle" x="288" y="-769.2" font-family="Courier,monospace" font-size="11.00">Group</text>
</a>
</g>
<!-- \\Conf -->
<g id="node3" class="node"><title>\\Conf</title>
<a xlink:href="Conf.html" xlink:title="Conf" target="_parent">
<polygon fill="none" stroke="black" points="315,-736 261,-736 261,-700 315,-700 315,-736"/>
<text text-anchor="middle" x="288" y="-715.2" font-family="Courier,monospace" font-size="11.00">Conf</text>
</a>
</g>
<!-- \\Log -->
<g id="node4" class="node"><title>\\Log</title>
<a xlink:href="log.html" xlink:title="Log" target="_parent">
<polygon fill="none" stroke="black" points="315,-682 261,-682 261,-646 315,-646 315,-682"/>
<text text-anchor="middle" x="288" y="-661.2" font-family="Courier,monospace" font-size="11.00">Log</text>
</a>
</g>
<!-- \\Machine -->
<g id="node5" class="node"><title>\\Machine</title>
<a xlink:href="machine.html" xlink:title="Machine" target="_parent">
<polygon fill="none" stroke="black" points="320,-628 256,-628 256,-592 320,-592 320,-628"/>
<text text-anchor="middle" x="288" y="-607.2" font-family="Courier,monospace" font-size="11.00">Machine</text>
</a>
</g>
<!-- \\MachineSearch -->
<g id="node6" class="node"><title>\\MachineSearch</title>
<a xlink:href="machine.html" xlink:title="MachineSearch" target="_parent">
<polygon fill="none" stroke="black" points="340,-574 236,-574 236,-538 340,-538 340,-574"/>
<text text-anchor="middle" x="288" y="-553.2" font-family="Courier,monospace" font-size="11.00">MachineSearch</text>
</a>
</g>
<!-- \\Filter -->
<g id="node7" class="node"><title>\\Filter</title>
<a xlink:href="machine.html" xlink:title="Filter" target="_parent">
<polygon fill="none" stroke="black" points="93.5,-466 36.5,-466 36.5,-430 93.5,-430 93.5,-466"/>
<text text-anchor="middle" x="65" y="-445.2" font-family="Courier,monospace" font-size="11.00">Filter</text>
</a>
</g>
<!-- \\FilterModuleDescription -->
<g id="node8" class="node"><title>\\FilterModuleDescription</title>
<a xlink:href="machine.html" xlink:title="FilterModuleDescription" target="_parent">
<polygon fill="none" stroke="black" points="374,-520 202,-520 202,-484 374,-484 374,-520"/>
<text text-anchor="middle" x="288" y="-499.2" font-family="Courier,monospace" font-size="11.00">FilterModuleDescription</text>
</a>
</g>
<!-- \\FilterModuleDescription&#45;&gt;\\Filter -->
<g id="edge3" class="edge"><title>\\FilterModuleDescription&#45;&gt;\\Filter</title>
<path fill="none" stroke="black" d="M213.103,-483.944C176.398,-474.975 133.619,-464.522 103.687,-457.209"/>
<polygon fill="none" stroke="black" points="104.211,-453.734 93.6662,-454.76 102.55,-460.534 104.211,-453.734"/>
</g>
<!-- \\FilterModuleDriver -->
<g id="node9" class="node"><title>\\FilterModuleDriver</title>
<a xlink:href="machine.html" xlink:title="FilterModuleDriver" target="_parent">
<polygon fill="none" stroke="black" points="357,-466 219,-466 219,-430 357,-430 357,-466"/>
<text text-anchor="middle" x="288" y="-445.2" font-family="Courier,monospace" font-size="11.00">FilterModuleDriver</text>
</a>
</g>
<!-- \\FilterModuleDriver&#45;&gt;\\Filter -->
<g id="edge5" class="edge"><title>\\FilterModuleDriver&#45;&gt;\\Filter</title>
<path fill="none" stroke="black" d="M218.889,-448C180.946,-448 135.142,-448 103.62,-448"/>
<polygon fill="none" stroke="black" points="103.509,-444.5 93.509,-448 103.509,-451.5 103.509,-444.5"/>
</g>
<!-- \\FilterModuleElement -->
<g id="node10" class="node"><title>\\FilterModuleElement</title>
<a xlink:href="machine.html" xlink:title="FilterModuleElement" target="_parent">
<polygon fill="none" stroke="black" points="360.5,-412 215.5,-412 215.5,-376 360.5,-376 360.5,-412"/>
<text text-anchor="middle" x="288" y="-391.2" font-family="Courier,monospace" font-size="11.00">FilterModuleElement</text>
</a>
</g>
<!-- \\FilterModuleElement&#45;&gt;\\Filter -->
<g id="edge7" class="edge"><title>\\FilterModuleElement&#45;&gt;\\Filter</title>
<path fill="none" stroke="black" d="M215.248,-411.532C177.993,-420.635 134.01,-431.382 103.485,-438.841"/>
<polygon fill="none" stroke="black" points="102.561,-435.463 93.6779,-441.237 104.223,-442.263 102.561,-435.463"/>
</g>
<!-- \\Configuration -->
<g id="node11" class="node"><title>\\Configuration</title>
<a xlink:href="configuration.html" xlink:title="Configuration" target="_parent">
<polygon fill="none" stroke="black" points="340,-358 236,-358 236,-322 340,-322 340,-358"/>
<text text-anchor="middle" x="288" y="-337.2" font-family="Courier,monospace" font-size="11.00">Configuration</text>
</a>
</g>
<!-- \\User -->
<g id="node12" class="node"><title>\\User</title>
<a xlink:href="User.html" xlink:title="User" target="_parent">
<polygon fill="none" stroke="black" points="315,-304 261,-304 261,-268 315,-268 315,-304"/>
<text text-anchor="middle" x="288" y="-283.2" font-family="Courier,monospace" font-size="11.00">User</text>
</a>
</g>
<!-- \\JobRun -->
<g id="node13" class="node"><title>\\JobRun</title>
<a xlink:href="jobrun.html" xlink:title="JobRun" target="_parent">
<polygon fill="none" stroke="black" points="316.5,-250 259.5,-250 259.5,-214 316.5,-214 316.5,-250"/>
<text text-anchor="middle" x="288" y="-229.2" font-family="Courier,monospace" font-size="11.00">JobRun</text>
</a>
</g>
<!-- \\Module -->
<g id="node14" class="node"><title>\\Module</title>
<a xlink:href="module.html" xlink:title="Module" target="_parent">
<polygon fill="none" stroke="black" points="316.5,-196 259.5,-196 259.5,-160 316.5,-160 316.5,-196"/>
<text text-anchor="middle" x="288" y="-175.2" font-family="Courier,monospace" font-size="11.00">Module</text>
</a>
</g>
<!-- \\UserRole -->
<g id="node15" class="node"><title>\\UserRole</title>
<a xlink:href="UserRole.html" xlink:title="UserRole" target="_parent">
<polygon fill="none" stroke="black" points="323.5,-142 252.5,-142 252.5,-106 323.5,-106 323.5,-142"/>
<text text-anchor="middle" x="288" y="-121.2" font-family="Courier,monospace" font-size="11.00">UserRole</text>
</a>
</g>
<!-- \\Authenticator -->
<g id="node16" class="node"><title>\\Authenticator</title>
<a xlink:href="Authenticator.html" xlink:title="Authenticator" target="_parent">
<polygon fill="none" stroke="black" points="340,-88 236,-88 236,-52 340,-52 340,-88"/>
<text text-anchor="middle" x="288" y="-67.2" font-family="Courier,monospace" font-size="11.00">Authenticator</text>
</a>
</g>
<!-- \\Zend_Auth -->
<g id="node21" class="node"><title>\\Zend_Auth</title>
<ellipse fill="none" stroke="black" cx="65" cy="-18" rx="64.189" ry="18"/>
<text text-anchor="middle" x="65" y="-14.3" font-family="Times,serif" font-size="14.00" fill="gray">\Zend_Auth</text>
</g>
<!-- \\Authenticator&#45;&gt;\\Zend_Auth -->
<g id="edge9" class="edge"><title>\\Authenticator&#45;&gt;\\Zend_Auth</title>
<path fill="none" stroke="black" d="M235.743,-57.9395C202.551,-50.1296 159.234,-39.9375 124.667,-31.804"/>
<polygon fill="none" stroke="black" points="125.24,-28.3434 114.705,-29.4599 123.637,-35.1573 125.24,-28.3434"/>
</g>
</g>
</svg>
